# xmcd
#
# Track frame offsets:
#	150
#	14841
#	31071
#	45013
#	60594
#	73521
#	87783
#	103981
#	117701
#	134234
#	148955
#	162495
#	178636
#	192154
#	206492
#	222217
#	237204
#	250874
#	265063
#	278320
#
# Disc length: 3869 seconds
#
# Revision: 0
# Processed by: cddbd v1.5.2PL0 Copyright (c) Steve Scherf et al.
# Submitted via: EasyCDDAExtractor 16.0.6.1
#
DISCID=280f1b14
DTITLE=Various Artist - Le son Dancefloor Summer 2018 [CD2)
DYEAR=2018
DGENRE=Dance
TTITLE0=L'artiste - Mafiosa
TTITLE1=Maître Gims - Mi Gna
TTITLE2=Mosimann - Forever
TTITLE3=Clean Bandit - I Miss You
TTITLE4=Diplo - Get It Right
TTITLE5=Adrien Toma - Talk To Me
TTITLE6=Dadju - Bob Marley
TTITLE7=Marshmello - Silence
TTITLE8=Martin Garrix - Forever
TTITLE9=The Wickeed - From The Top
TTITLE10=Tiesto - Boom
TTITLE11=The Magician - Love Break
TTITLE12=Kamaleon - Quiero Vivir
TTITLE13=A.M.T - You Make Me
TTITLE14=Celestal - Old School Romance
TTITLE15=Selena Gomez - Wolves
TTITLE16=Boostee - M.A.D. (My American Dream)
TTITLE17=Gorgon City - One Last Song
TTITLE18=Sound Of Legend - What A Feeling... Flashdance
TTITLE19=Basada - Good Vibes
EXTD=
EXTT0=
EXTT1=
EXTT2=
EXTT3=
EXTT4=
EXTT5=
EXTT6=
EXTT7=
EXTT8=
EXTT9=
EXTT10=
EXTT11=
EXTT12=
EXTT13=
EXTT14=
EXTT15=
EXTT16=
EXTT17=
EXTT18=
EXTT19=
PLAYORDER=
